<svg xmlns="http://www.w3.org/2000/svg" viewBox="0 0 720 720">
  <defs>
    <style>
      .cls-1 {
        isolation: isolate;
      }

      .cls-2 {
        fill: #696969;
        opacity: 0.72;
        mix-blend-mode: hard-light;
      }
    </style>
  </defs>
  <title>address-entity</title>
  <g class="cls-1">
    <g id="EF">
      <circle class="cls-2" cx="360" cy="19.577" r="2.88"/>
    </g>
    <g id="EE">
      <path class="cls-2" d="M333.412,22.171a26.67,26.67,0,0,0,53.175,0q.061-.773.122-1.545a338.875,338.875,0,0,0-53.419,0Q333.352,21.4,333.412,22.171Z"/>
    </g>
    <g id="ED">
      <path class="cls-2" d="M334.565,36.823a25.513,25.513,0,0,0,50.869,0l1.275-16.2a338.875,338.875,0,0,0-53.419,0Z"/>
    </g>
    <g id="EC">
      <path class="cls-2" d="M335.719,51.475a24.356,24.356,0,0,0,48.563,0q1.214-15.424,2.428-30.849a338.875,338.875,0,0,0-53.419,0Q334.5,36.051,335.719,51.475Z"/>
    </g>
    <g id="EB">
      <path class="cls-2" d="M383.128,66.127a23.2,23.2,0,0,1-46.256,0q-.288-3.661-.576-7.321a23.778,23.778,0,1,1,47.409,0Q383.417,62.467,383.128,66.127Z"/>
    </g>
    <g id="EA">
      <path class="cls-2" d="M381.975,80.779a22.043,22.043,0,0,1-43.95,0q-.372-4.726-.744-9.453a22.789,22.789,0,1,1,45.438,0Q382.347,76.053,381.975,80.779Z"/>
    </g>
    <g id="E9">
      <path class="cls-2" d="M380.822,95.431a20.887,20.887,0,0,1-41.644,0q-.456-5.792-.912-11.584a21.8,21.8,0,1,1,43.468,0Q381.278,89.639,380.822,95.431Z"/>
    </g>
    <g id="E8">
      <path class="cls-2" d="M340.331,110.083a19.73,19.73,0,0,0,39.338,0q.047-.6.094-1.2a19.824,19.824,0,1,0-39.526,0Q340.284,109.485,340.331,110.083Z"/>
    </g>
    <g id="E7">
      <path class="cls-2" d="M378.516,124.735a18.573,18.573,0,0,1-37.032,0q-.131-1.664-.262-3.328a18.836,18.836,0,1,1,37.555,0Q378.647,123.071,378.516,124.735Z"/>
    </g>
    <g id="E6">
      <path class="cls-2" d="M377.363,139.387a17.416,17.416,0,0,1-34.725,0l-.43-5.46a17.847,17.847,0,1,1,35.585,0Z"/>
    </g>
    <g id="E5">
      <path class="cls-2" d="M376.21,154.039a16.26,16.26,0,0,1-32.419,0l-.6-7.592a16.859,16.859,0,1,1,33.614,0Z"/>
    </g>
    <g id="E4">
      <path class="cls-2" d="M375.056,168.691a15.1,15.1,0,0,1-30.113,0l-.765-9.724a15.871,15.871,0,1,1,31.643,0Z"/>
    </g>
    <g id="E3">
      <path class="cls-2" d="M373.9,183.343a13.946,13.946,0,0,1-27.806,0q-.467-5.928-.933-11.856a14.882,14.882,0,1,1,29.673,0Q374.37,177.415,373.9,183.343Z"/>
    </g>
    <g id="E2">
      <path class="cls-2" d="M372.75,197.994a12.789,12.789,0,0,1-25.5,0q-.551-6.994-1.1-13.988a13.894,13.894,0,1,1,27.7,0Q373.3,191,372.75,197.994Z"/>
    </g>
    <g id="E1">
      <path class="cls-2" d="M371.6,212.646a11.633,11.633,0,0,1-23.194,0l-1.269-16.12a12.905,12.905,0,1,1,25.731,0Z"/>
    </g>
    <g id="E0">
      <path class="cls-2" d="M349.556,227.3a10.476,10.476,0,0,0,20.888,0l1.436-18.252a11.917,11.917,0,1,0-23.761,0Z"/>
    </g>
  </g>
</svg>
