<svg id="BG" xmlns="http://www.w3.org/2000/svg" viewBox="0 0 720 720">
	<defs>
		<g>
			<path
				id="bioPath"
				d="M360,43.2A315.224,315.224,0,0,1,658.9,262.882,312.326,312.326,0,0,1,456.144,655.9,309.059,309.059,0,0,1,58.955,423.989,305.819,305.819,0,0,1,296.666,62.037,302.666,302.666,0,0,1,654.882,297.321,299.519,299.519,0,0,1,422.024,651.8,296.369,296.369,0,0,1,71.28,421.369,293.218,293.218,0,0,1,299.286,74.361,290.19,290.19,0,0,1,634.931,270.669,287.251,287.251,0,0,1,476.384,621.4,284.31,284.31,0,0,1,114.742,501.6a281.372,281.372,0,0,1,80.526-368.335,278.432,278.432,0,0,1,370.822,41.172A275.615,275.615,0,0,1,582.148,521.4a272.885,272.885,0,0,1-332.723,86.956A270.031,270.031,0,0,1,104.242,276.9,267.215,267.215,0,0,1,387.824,95.268,264.485,264.485,0,0,1,622.017,332.461,261.757,261.757,0,0,1,440.57,607.969,259.027,259.027,0,0,1,136.565,489a256.422,256.422,0,0,1,33.576-299.949A253.9,253.9,0,0,1,462.888,128.91,251.254,251.254,0,0,1,604.762,412.026,248.652,248.652,0,0,1,385.893,606.353,246.133,246.133,0,0,1,136.008,459.728a243.614,243.614,0,0,1,61.614-280.067,241.092,241.092,0,0,1,282.453-27.637A238.574,238.574,0,0,1,592.437,409.406,236.181,236.181,0,0,1,408.926,590.178,233.742,233.742,0,0,1,158.389,476.4a231.35,231.35,0,0,1,15.14-251.879,228.914,228.914,0,0,1,256.917-81.334A226.52,226.52,0,0,1,584.424,336.412,224.081,224.081,0,0,1,450.759,563.848a221.824,221.824,0,0,1-220.683-25.023,219.461,219.461,0,0,1-77.9-246.352A217.205,217.205,0,0,1,315,148.309,216.228,216.228,0,0,1,360,144"/>
		</g>
		<style type="text/css">
			<![CDATA[
			#bioPath {
				fill: none;
				stroke: #fff;
				stroke-linecap: round;
				stroke-linejoin: round;
			}
			text {
				font-family: 'Roboto Mono', 'sans-serif';
				font-weight: 300;
				font-size: 11px;
				fill: white;
			}

			]]>
		</style>
	</defs>
	<title>biog</title>

	<text id="bioTextPath">
		<textPath href="#bioPath" id="bioTextContent">:</textPath>
		<animateTransform attributeName="transform" attributeType="XML" type="rotate" from="0 360 360" to="-360 360 360" begin="0s" dur="600s" repeatCount="indefinite"/>
	</text>

</svg>
